Coordinates
version=1
nRows=54
nColumns=12
inDegrees=yes

Units are S.I. units (second, meters, Newtons, ...)
Angles are in degrees

endheader
time	SC_y	SC_z	SC_x	AC_y	AC_z	AC_x	GH_y	GH_z	GH_yy	EL_x	PS_y
       0.0              -18.41         0.4861          54.28          66.89         -5.557          -5.51          153.1           78.6          53.51          111.1          36.62
   0.02675              -18.41         0.4879          54.29          66.88         -5.557         -5.512          153.1           78.6          53.48          111.1          36.63
    0.0535              -18.41         0.4898          54.29          66.88         -5.557         -5.514          153.0          78.59          53.45          111.1          36.65
   0.08025              -18.41         0.4919          54.29          66.88         -5.557         -5.516          153.0          78.59          53.42          111.1          36.66
     0.107              -18.41          0.494           54.3          66.87         -5.557         -5.518          153.0          78.58          53.39          111.1          36.67
    0.1337              -18.41         0.4963           54.3          66.87         -5.557         -5.521          153.0          78.58          53.35          111.1          36.69
    0.1605              -18.41         0.4988           54.3          66.87         -5.557         -5.523          153.0          78.57          53.31          111.0           36.7
    0.1872              -18.41         0.5014          54.31          66.86         -5.557         -5.526          153.0          78.56          53.27          111.0          36.72
     0.214              -18.41         0.5042          54.31          66.86         -5.557         -5.529          153.0          78.55          53.23          111.0          36.74
    0.2407              -18.41         0.5072          54.32          66.85         -5.557         -5.532          153.0          78.55          53.18          111.0          36.75
    0.2675              -18.41         0.5105          54.32          66.85         -5.557         -5.535          153.0          78.54          53.13          111.0          36.77
    0.2942              -18.41          0.514          54.33          66.84         -5.557         -5.539          153.0          78.53          53.08          110.9           36.8
     0.321              -18.41         0.5177          54.33          66.83         -5.557         -5.543          153.0          78.52          53.02          110.9          36.82
    0.3477              -18.41         0.5218          54.34          66.83         -5.556         -5.547          152.9          78.51          52.96          110.9          36.84
    0.3745              -18.41         0.5262          54.34          66.82         -5.556         -5.552          152.9          78.49          52.89          110.8          36.87
    0.4012              -18.42          0.531          54.35          66.81         -5.556         -5.557          152.9          78.48          52.82          110.8           36.9
     0.428              -18.42         0.5361          54.36          66.81         -5.556         -5.562          152.9          78.47          52.74          110.8          36.93
    0.4547              -18.42         0.5418          54.37           66.8         -5.556         -5.568          152.9          78.45          52.65          110.7          36.97
    0.4815              -18.42         0.5479          54.38          66.79         -5.556         -5.574          152.8          78.43          52.56          110.7          37.01
    0.5082              -18.42         0.5547          54.39          66.78         -5.556         -5.581          152.8          78.42          52.45          110.6          37.05
     0.535              -18.42         0.5621           54.4          66.76         -5.555         -5.589          152.8           78.4          52.34          110.6           37.1
    0.5617              -18.42         0.5703          54.41          66.75         -5.555         -5.597          152.8          78.37          52.21          110.5          37.15
    0.5885              -18.42         0.5793          54.42          66.74         -5.555         -5.607          152.7          78.35          52.08          110.4           37.2
    0.6152              -18.43         0.5892          54.44          66.72         -5.555         -5.617          152.7          78.32          51.92          110.4          37.26
     0.642              -18.43         0.6003          54.46           66.7         -5.555         -5.629          152.7          78.29          51.75          110.3          37.33
    0.6687              -18.43         0.6127          54.47          66.68         -5.554         -5.642          152.6          78.26          51.56          110.2          37.41
    0.6955              -18.43         0.6266           54.5          66.66         -5.554         -5.656          152.6          78.22          51.35          110.1           37.5
    0.7222              -18.43         0.6422          54.52          66.64         -5.554         -5.672          152.5          78.18          51.11          110.0          37.59
     0.749              -18.44         0.6598          54.55          66.61         -5.553         -5.691          152.5          78.13          50.84          109.8           37.7
    0.7757              -18.44         0.6798          54.58          66.57         -5.553         -5.711          152.4          78.07          50.53          109.7          37.83
    0.8025              -18.44         0.7027          54.61          66.54         -5.552         -5.735          152.3          78.01          50.18          109.5          37.97
    0.8292              -18.45         0.7289          54.65           66.5         -5.551         -5.762          152.2          77.94          49.78          109.3          38.13
     0.856              -18.45         0.7591           54.7          66.45         -5.551         -5.794          152.1          77.85          49.31          109.1          38.32
    0.8827              -18.46         0.7943          54.75          66.39          -5.55          -5.83          152.0          77.76          48.77          108.8          38.54
    0.9095              -18.47         0.8355          54.81          66.32         -5.549         -5.873          151.9          77.64          48.14          108.5           38.8
    0.9362              -18.47          0.884          54.88          66.25         -5.548         -5.924          151.7          77.51           47.4          108.2           39.1
     0.963              -18.48         0.9416          54.97          66.15         -5.546         -5.984          151.5          77.35          46.51          107.7          39.46
    0.9897              -18.49          1.011          55.07          66.04         -5.545         -6.055          151.3          77.16          45.45          107.2          39.89
     1.016              -18.51          1.094           55.2          65.91         -5.543         -6.142          151.0          76.93          44.17          106.6          40.41
     1.043              -18.52          1.196          55.35          65.75          -5.54         -6.249          150.6          76.65           42.6          105.8          41.05
      1.07              -18.55          1.322          55.54          65.54         -5.537          -6.38          150.2          76.31          40.66          104.9          41.83
     1.097              -18.57           1.48          55.78          65.29         -5.534         -6.543          149.6          75.87          38.25          103.7          42.81
     1.123               -18.6          1.678          56.08          64.97         -5.529         -6.749          148.9          75.33          35.21          102.3          44.04
      1.15              -18.64          1.929          56.46          64.57         -5.523         -7.011          148.1          74.64          31.34          100.4          45.61
     1.177               -18.7          2.251          56.94          64.05         -5.515         -7.346          147.0          73.75          26.39           98.0          47.62
     1.204              -18.77          2.665          57.57          63.39         -5.505         -7.775          145.5          72.62          20.04          94.92          50.19
      1.23              -18.85          3.193          58.36          62.54         -5.493         -8.325          143.7          71.16          11.93          90.99          53.48
     1.257              -18.96          3.857          59.36          61.48         -5.477         -9.015          141.4          69.34           1.73          86.05          57.62
     1.284              -19.09          4.666          60.58          60.18         -5.457         -9.856          138.6          67.12          -10.7          80.03          62.66
     1.311              -19.25          5.604          61.99          58.67         -5.435         -10.83          135.4          64.54         -25.11          73.05           68.5
     1.337              -19.41           6.62          63.52          57.04         -5.411         -11.89          131.9          61.75          -40.7           65.5          74.83
     1.364              -19.58          7.635          65.05          55.41         -5.387         -12.94          128.4          58.96          -56.3          57.94          81.16
     1.391              -19.73          8.573          66.46          53.91         -5.364         -13.92          125.1          56.38         -70.71          50.96           87.0
     1.418              -19.87          9.382          67.68          52.61         -5.345         -14.76          122.4          54.15         -83.14          44.94          92.04
